<svg width="44" height="32" viewBox="1180 60 44 32" xmlns="http://www.w3.org/2000/svg">
<path d="M1180 68.2021C1180 64.108 1183.09 60.6912 1187.18 60.4466C1191.04 60.2156 1196.2 60 1202 60C1207.8 60 1212.96 60.2156 1216.82 60.4466C1220.91 60.6912 1224 64.108 1224 68.2021V83.886C1224 87.9427 1220.96 91.3294 1216.91 91.572C1213.18 91.7958 1208.1 92 1202 92C1195.9 92 1190.82 91.7958 1187.09 91.572C1183.04 91.3294 1180 87.9427 1180 83.886V68.2021Z" fill="#F1C953"/>
<path d="M1211 76L1197.5 83.7942V68.2058L1211 76Z" fill="#4EA487"/>
</svg>
